<?xml version="1.0" standalone="no"?><!DOCTYPE svg PUBLIC "-//W3C//DTD SVG 1.1//EN" "http://www.w3.org/Graphics/SVG/1.1/DTD/svg11.dtd"><svg t="1539345268978" class="icon" style="" viewBox="0 0 1024 1024" version="1.1" xmlns="http://www.w3.org/2000/svg" p-id="2976" xmlns:xlink="http://www.w3.org/1999/xlink" width="128" height="128"><defs><style type="text/css"></style></defs><path d="M589.1 332H523c-13 0-17.6 4.6-17.6 17.5v37h83.7V332zM521 493.6l51.8-0.1c6.3-19.7 11-37.9 14.2-54.5h-81.6v37c0 8.2 1.6 14.2 4.3 16.4 2.5 2.1 7.6 1.8 11.3 1.2z m204.1-144.1c0.8-5.7 1.1-10.7-1.1-13.3-2.3-2.7-8.3-4.2-16.4-4.2h-66.1v54.5h83.7v-37zM723.7 492c2-2 2.6-7.4 1.6-14.5l-0.1-38.6h-85.7c-3 15.2-7.6 33.5-13.6 54.5h81.7c8.7 1.1 14.1 0.6 16.1-1.4z m19.9-422.5H280.3C161.2 69.5 63.8 167 63.8 286.1v463.4c0 119.1 97.4 216.5 216.5 216.5h463.3c119.1 0 216.5-97.4 216.5-216.5V286.1c0.1-119.1-97.4-216.6-216.5-216.6z m47.8 601l-2.8 1.7H680.3v128.3l-2.3 3.1c-7.1 9.5-15.2 14.3-23.9 14.4-8.7 0-16.7-4.8-23.9-14.4l-2.3-3.1V672.2H437.1l-2.7-1.7c-8.6-5.1-14.1-10.9-16.5-17.2v137.5l-2.3 3.1c-14.3 19-33.5 19.1-47.8 0l-2.3-3.1V612c1.2-10.2 0-16.5-3.3-20.4-5-5.7-15.8-6.9-23.9-6.9h-36.7c1.8 93.2-11.8 167.9-40.5 222.3l-2 3.8-4 1.6c-12.1 4.9-22.1 4.8-29.5-0.3-7.1-4.8-10.7-13.3-10.7-25.1v-3.1l1.5-2.7c24.7-43.3 35.6-113.2 32.5-207.7V267.9l2.3-3.1c14.3-19 33.5-19 47.8 0l2.3 3.1v128.3h44.8V243.6l2.3-3.1c14.3-19 33.5-19 47.7 0l2.3 3.1v152.7H449l3.1 2.3c0.3 0.2 0.6 0.4 0.9 0.7v-59.4c0-38.8 21.4-60.2 60.2-60.2h50.9c5.2-11.7 10.4-26.8 15.7-45l1-3.6 2.9-2.3c4.6-3.7 18.6-14.9 32.2-9.9 8 2.9 13.3 10.2 15.6 21.6l0.5 2.3-0.5 2.3c-2.3 11.5-5.4 23.1-9.4 34.7h95.2c21.9 0 38.3 5.8 48.5 17.1 9.6 10.6 13.5 25.5 11.6 44.3l0.1 144.7c1.9 20.3-2.5 36.5-13.1 47.1-10.6 10.6-26.9 14.9-48.1 13H609.1c-8.6 24.7-22.6 49.4-41.8 74h60.6v-49.9l1.7-2.8c7.1-11.8 15.4-17.8 24.6-17.8 9.2 0 17.5 6 24.5 17.8l1.7 2.8V620h108.3l2.8 1.7c11.8 7.1 17.7 15.3 17.7 24.5-0.1 9-6 17.2-17.8 24.3zM470.1 534.2c-11.4-10.3-17.1-26.6-17.1-48.6v-40c-0.3 0.2-0.6 0.4-0.9 0.7l-3.1 2.3H301.2v83.7h46.7c25.1 0 43.9 6.6 55.8 19.5 11.2 12.2 15.9 29.5 14.1 51.4v35.5c2.4-6.3 7.9-12.1 16.5-17.2l2.7-1.7h62c22.1-20.4 40.4-45.2 54.5-74h-40.3c-17.7 1.9-32.6-2-43.1-11.6z" p-id="2977"></path></svg>