<?xml version="1.0" standalone="no"?><!DOCTYPE svg PUBLIC "-//W3C//DTD SVG 1.1//EN" "http://www.w3.org/Graphics/SVG/1.1/DTD/svg11.dtd"><svg t="1539419169361" class="icon" style="" viewBox="0 0 1408 1024" version="1.1" xmlns="http://www.w3.org/2000/svg" p-id="1954" xmlns:xlink="http://www.w3.org/1999/xlink" width="176" height="128"><defs><style type="text/css"></style></defs><path d="M614.4 115.2C499.2 38.4 371.2 0 230.4 0 166.4 0 102.4 12.8 38.4 25.6L0 38.4v896l76.8-12.8c179.2-25.6 332.8 0 473.6 51.2L640 1024V128L614.4 115.2zM512 832c-89.6-25.6-179.2-38.4-281.6-38.4H128V140.8c38.4-12.8 76.8-12.8 102.4-12.8 102.4 0 192 25.6 281.6 76.8v627.2zM1356.8 25.6C1164.8-25.6 960 0 793.6 115.2L768 128v883.2l89.6-38.4c128-64 294.4-76.8 473.6-51.2l76.8 12.8v-896l-51.2-12.8zM1280 780.8c-140.8-12.8-268.8 0-384 38.4V204.8c115.2-64 256-89.6 384-64v640z" fill="" p-id="1955"></path></svg>